<?xml version="1.0" encoding="iso-8859-1"?>
<!-- Generator: Adobe Illustrator 19.0.0, SVG Export Plug-In . SVG Version: 6.00 Build 0)  -->
<svg version="1.1" id="Layer_1" xmlns="http://www.w3.org/2000/svg" xmlns:xlink="http://www.w3.org/1999/xlink" x="0px" y="0px"
	 viewBox="0 0 398.276 398.276" style="enable-background:new 0 0 398.276 398.276;" xml:space="preserve">
<g>
	<path style="fill:#967A4A;" d="M206.706,166.047v58.977c-0.001,0,19.584,19.587,19.584,19.587v0.002l-56.596,56.597
		c-3.421,3.421-3.42,8.964,0,12.384l24.068,24.068l7.069,7.068c2.097,2.099,5.498,2.099,7.595,0c7.291-7.291,7.291-19.114,0-26.403
		l-11.898-11.898l51.871-39.696l0.001,0.001c0.002-0.002,0.003-0.004,0.006-0.006v-0.001c10.674-10.673,17.276-25.417,17.276-41.704
		C265.683,192.45,239.279,166.047,206.706,166.047z"/>
	<path style="fill:#967A4A;" d="M117.692,337.906h-17.339L91.734,273.4l0,0c16.863-23.82,28.623-51.503,33.715-81.457h-64.99v81.207
		l17.742,68.771v11.271c0,4.837,3.92,8.757,8.757,8.757h44.034c2.969,0,5.371-2.404,5.371-5.37
		C136.363,346.267,128.003,337.906,117.692,337.906z"/>
	<g>
		<path style="fill:#BF9B5F;" d="M375.261,61.126h-17.058c-5.418-12.646-17.972-21.509-32.601-21.509
			c-19.582,0-35.454,15.875-35.454,35.454v16.482c0,15.997-9.648,29.734-23.439,35.729c-0.792-1.93-1.724-3.895-2.823-5.887
			l-35.975-65.249c-14.568-26.429-38.412-26.429-52.98,0l-20.73,37.6l-20.729-37.6c-14.57-26.429-38.412-26.429-52.983,0
			l-35.972,65.249c-1.492,2.707-2.683,5.36-3.611,7.948c-3.622,4.274-6.625,9.091-8.87,14.31C13.187,152.018,0,170.901,0,192.818
			v36.816c0,3.334,2.703,6.037,6.036,6.037s6.036-2.703,6.036-6.037v-36.816c0-13.149,6.123-24.887,15.66-32.536
			c-0.192,1.904-0.302,3.833-0.302,5.789v25.873l-7.129,81.207l8.78,68.771v11.271c0,4.837,3.919,8.757,8.757,8.757h44.034
			c2.967,0,5.37-2.404,5.37-5.37c0-10.312-8.359-18.672-18.67-18.672H51.234l0.343-64.506h0.002
			c9.646-13.628,19.952-28.52,27.961-44.378c18.827,10.683,40.581,16.805,63.773,16.805c26.165,0,50.505-7.778,70.869-21.124h3.628
			l0.127,128.489c0,4.837,3.92,8.757,8.757,8.757h44.035c2.966,0,5.37-2.404,5.37-5.37c0-10.312-8.36-18.672-18.671-18.672h-16.827
			l8.575-64.482l0.659-0.01c13.33-19.455,23.287-41.384,29.063-64.93c45.034-16.579,79.792-54.406,92.115-101.329h4.246
			c12.712,0,23.017-10.305,23.017-23.016C398.277,71.428,387.973,61.126,375.261,61.126z"/>
		<path style="fill:#333E48;" d="M384.533,74.52c0-2.828-2.293-5.121-5.121-5.121s-5.12,2.293-5.12,5.121H384.533z"/>
		<circle style="fill:#333E48;" cx="335.908" cy="61.126" r="4.938"/>
		<g>
			<path style="fill:#BF9B5F;" d="M285.068,45.761c-2.728,2.479-2.93,6.699-0.451,9.428l8.131,8.945
				c2.477,2.729,6.698,2.931,9.427,0.453c2.728-2.48,2.931-6.7,0.45-9.428l-8.129-8.946
				C292.02,43.486,287.798,43.284,285.068,45.761z"/>
			<path style="fill:#967A4A;" d="M288.857,49.93c-1.093,0.993-1.174,2.685-0.181,3.777l5.871,6.461
				c0.992,1.093,2.684,1.174,3.777,0.181c1.094-0.994,1.174-2.685,0.182-3.777l-5.871-6.462
				C291.642,49.018,289.95,48.936,288.857,49.93z"/>
		</g>
	</g>
</g>
<g>
</g>
<g>
</g>
<g>
</g>
<g>
</g>
<g>
</g>
<g>
</g>
<g>
</g>
<g>
</g>
<g>
</g>
<g>
</g>
<g>
</g>
<g>
</g>
<g>
</g>
<g>
</g>
<g>
</g>
</svg>
