<?xml version="1.0" encoding="iso-8859-1"?>
<!-- Generator: Adobe Illustrator 19.0.0, SVG Export Plug-In . SVG Version: 6.00 Build 0)  -->
<svg version="1.1" id="Layer_1" xmlns="http://www.w3.org/2000/svg" xmlns:xlink="http://www.w3.org/1999/xlink" x="0px" y="0px"
	 viewBox="0 0 374.428 374.428" style="enable-background:new 0 0 374.428 374.428;" xml:space="preserve">
<g>
	<g>
		<path style="fill:#826940;" d="M268.538,309.561c-31.518,0-57.069-25.551-57.069-57.069V188.1
			c0-15.759,12.775-28.535,28.534-28.535c15.76,0,28.535,12.775,28.535,28.535V309.561z"/>
		<path style="fill:#BFAB6C;" d="M258.273,330.32c5.669,0,10.266-4.597,10.266-10.266V290.38c0-2.835-2.299-5.132-5.133-5.132
			c-2.836,0-5.133,2.297-5.133,5.132V330.32z"/>
		<path style="fill:#BFAB6C;" d="M244.595,330.32c5.67,0,10.266-4.597,10.266-10.266V290.38c0-2.835-2.298-5.132-5.132-5.132
			c-2.837,0-5.134,2.297-5.134,5.132V330.32z"/>
		<path style="fill:#BFAB6C;" d="M230.916,330.32c5.67,0,10.267-4.597,10.267-10.266V290.38c0-2.835-2.298-5.132-5.132-5.132
			c-2.836,0-5.135,2.297-5.135,5.132V330.32z"/>
	</g>
	<g>
		<path style="fill:#826940;" d="M151.468,309.561c-31.519,0-57.069-25.551-57.069-57.069V188.1
			c0-15.759,12.775-28.535,28.534-28.535s28.535,12.775,28.535,28.535V309.561z"/>
		<path style="fill:#BFAB6C;" d="M141.203,330.32c5.669,0,10.266-4.597,10.266-10.266V290.38c0-2.835-2.298-5.132-5.132-5.132
			c-2.835,0-5.133,2.297-5.133,5.132v39.94H141.203z"/>
		<path style="fill:#BFAB6C;" d="M127.525,330.32c5.669,0,10.266-4.597,10.266-10.266V290.38c0-2.835-2.298-5.132-5.133-5.132
			c-2.834,0-5.133,2.297-5.133,5.132V330.32z"/>
		<path style="fill:#BFAB6C;" d="M113.847,330.32c5.67,0,10.267-4.597,10.267-10.266V290.38c0-2.835-2.299-5.132-5.133-5.132
			c-2.835,0-5.134,2.297-5.134,5.132C113.847,290.38,113.847,330.32,113.847,330.32z"/>
	</g>
	<g>
		<path style="fill:#65513C;" d="M359.349,204.341H0v46.271h288.383l41.658,41.66c1.645,1.645,3.8,2.466,5.956,2.466
			c2.154,0,4.311-0.822,5.955-2.466c3.289-3.289,3.289-8.622,0-11.911l-29.748-29.749h47.145L359.349,204.341L359.349,204.341z"/>
		<path style="fill:#05CE7C;" d="M329.385,267.793c-12.44,12.439-12.44,32.605,0,45.043c12.438,12.439,32.603,12.439,45.043,0
			L329.385,267.793z"/>
	</g>
	<g>
		<path style="fill:#9C7F4D;" d="M267.364,75.017H38.604c-7.417,0-13.43,6.012-13.43,13.429c0,6.667,4.864,12.184,11.233,13.234
			c-7.764,10.669-12.355,23.794-12.355,37.999c0,19.143,8.325,36.337,21.544,48.176c-0.001,0.082-0.006,0.164-0.006,0.246v121.461
			c31.518,0,57.069-25.551,57.069-57.069v-48.151h60v105.22c31.519,0,57.069-25.551,57.069-57.069v-48.151h47.637
			c35.712,0,64.662-28.95,64.662-64.663C332.026,103.967,303.076,75.017,267.364,75.017z"/>
		<g>
			<path style="fill:#FADF8D;" d="M172.924,330.32c-5.67,0-10.266-4.597-10.266-10.266V290.38c0-2.835,2.298-5.132,5.132-5.132
				c2.835,0,5.133,2.297,5.133,5.132v39.94H172.924z"/>
			<path style="fill:#FADF8D;" d="M186.602,330.32c-5.67,0-10.266-4.597-10.266-10.266V290.38c0-2.835,2.298-5.132,5.133-5.132
				c2.835,0,5.133,2.297,5.133,5.132L186.602,330.32L186.602,330.32z"/>
			<path style="fill:#FADF8D;" d="M200.279,330.32c-5.669,0-10.266-4.597-10.266-10.266V290.38c0-2.835,2.298-5.132,5.132-5.132
				c2.835,0,5.134,2.297,5.134,5.132V330.32z"/>
		</g>
		<path style="fill:#FADF8D;" d="M55.855,330.32c-5.67,0-10.266-4.597-10.266-10.266V290.38c0-2.835,2.298-5.132,5.132-5.132
			c2.835,0,5.133,2.297,5.133,5.132L55.855,330.32L55.855,330.32z"/>
		<path style="fill:#FADF8D;" d="M69.533,330.32c-5.669,0-10.266-4.597-10.266-10.266V290.38c0-2.835,2.298-5.132,5.133-5.132
			c2.835,0,5.133,2.297,5.133,5.132C69.533,290.38,69.533,330.32,69.533,330.32z"/>
		<path style="fill:#FADF8D;" d="M83.211,330.32c-5.67,0-10.267-4.597-10.267-10.266V290.38c0-2.835,2.299-5.132,5.133-5.132
			s5.133,2.297,5.133,5.132L83.211,330.32L83.211,330.32z"/>
	</g>
	<g>
		<circle style="fill:#967A4A;" cx="267.364" cy="124.225" r="80.117"/>
		<path style="fill:#9C7F4D;" d="M317.685,115.526c0-27.791-22.529-50.32-50.32-50.32s-50.32,22.529-50.32,50.32
			c0,7.115,1.485,13.881,4.148,20.017l-0.003,0.008l0.082,0.167c0.627,1.429,1.315,2.823,2.067,4.179l11.148,22.539l0.003-0.001
			c5.831,12.3,18.357,20.809,32.875,20.809c14.518,0,27.044-8.509,32.875-20.809l0.002,0.002l11.153-22.549
			c0.746-1.346,1.429-2.73,2.052-4.148l0.094-0.188l-0.004-0.01C316.199,129.407,317.685,122.642,317.685,115.526z"/>
		<g>
			<path style="fill:#333E48;" d="M246.079,112.795c-3.073-11.055-14.524-17.526-25.579-14.455l-31.391,8.722
				c-1.207,5.531-1.862,11.269-1.862,17.163c0,8.857,1.459,17.369,4.113,25.334l40.261-11.186
				C242.677,135.302,249.148,123.85,246.079,112.795z"/>
			<circle style="fill:#5C6670;" cx="228.523" cy="115.856" r="7.673"/>
		</g>
		<g>
			<path style="fill:#333E48;" d="M288.65,112.795c3.073-11.055,14.524-17.526,25.578-14.455l31.39,8.722
				c1.209,5.531,1.863,11.269,1.863,17.163c0,8.857-1.459,17.369-4.112,25.334l-40.263-11.186
				C292.053,135.302,285.58,123.85,288.65,112.795z"/>
			<circle style="fill:#5C6670;" cx="306.206" cy="115.856" r="7.673"/>
		</g>
		<path style="fill:#333E48;" d="M274.66,146.773c-3.411,3.539-9.097,3.639-12.632,0.225l-3.944-3.808
			c-3.537-3.414-2.407-6.207,2.508-6.207h14.574c4.915,0,6.145,2.895,2.732,6.433L274.66,146.773z"/>
	</g>
</g>
<g>
</g>
<g>
</g>
<g>
</g>
<g>
</g>
<g>
</g>
<g>
</g>
<g>
</g>
<g>
</g>
<g>
</g>
<g>
</g>
<g>
</g>
<g>
</g>
<g>
</g>
<g>
</g>
<g>
</g>
</svg>
