<?xml version="1.0" encoding="iso-8859-1"?>
<!-- Generator: Adobe Illustrator 19.0.0, SVG Export Plug-In . SVG Version: 6.00 Build 0)  -->
<svg version="1.1" id="Layer_1" xmlns="http://www.w3.org/2000/svg" xmlns:xlink="http://www.w3.org/1999/xlink" x="0px" y="0px"
	 viewBox="0 0 414.971 414.971" style="enable-background:new 0 0 414.971 414.971;" xml:space="preserve">
<g>
	<path style="fill:#7D868C;" d="M0,146.785c18.784-18.786,49.239-18.786,68.026-0.003l28.193,28.194
		c2.912,2.913,4.918,6.388,6.023,10.073c2.463,8.203,0.457,17.462-6.023,23.941l-28.195,28.195
		c-18.783,18.785-49.239,18.785-68.024,0l45.2-45.199L0,146.785z"/>
	<path style="fill:#7D868C;" d="M81.298,170.609c-9.861,0-17.855,7.995-17.855,17.856c0,0.698,0.041,1.389,0.119,2.066
		c9.631,65.197,65.82,115.23,133.695,115.23h83.9c67.875,0,124.064-50.033,133.695-115.23c0.078-0.678,0.118-1.368,0.118-2.066
		c0-9.861-7.994-17.856-17.854-17.856L81.298,170.609L81.298,170.609z"/>
	<circle style="fill:#5F7585;" cx="187.151" cy="192.983" r="10.666"/>
	<circle style="fill:#5F7585;" cx="153.765" cy="203.649" r="10.666"/>
	<circle style="fill:#5F7585;" cx="124.957" cy="185.932" r="7.666"/>
	<path style="fill:#5F7585;" d="M412.935,180.202c1.294,2.473,2.036,5.28,2.036,8.264c0,0.698-0.04,1.389-0.118,2.066
		c-9.632,65.197-65.82,115.23-133.695,115.23h-1.607C286.586,237.118,343.161,183.16,412.935,180.202z"/>
	<path style="fill:#5C6670;" d="M211.148,278.219c9.973,0,18.058,8.085,18.058,18.059s-8.085,18.059-18.058,18.058H157.29
		c0.001-19.945,16.17-36.114,36.115-36.116h17.743V278.219z"/>
	<circle style="fill:#333E48;" cx="269.1" cy="261.615" r="8.366"/>
	<path style="fill:#0075C9;" d="M230.447,100.636c9.665,0,18.234,4.755,23.51,12.044c5.274-7.289,13.845-12.044,23.509-12.044
		c15.996,0,29.01,13.014,29.01,29.009c0,3.037-2.463,5.5-5.5,5.5c-3.038,0-5.5-2.463-5.5-5.5c0-9.93-8.079-18.009-18.01-18.009
		c-9.93,0-18.009,8.079-18.009,18.009v22c0,3.037-2.463,5.5-5.5,5.5c-3.038,0-5.5-2.463-5.5-5.5v-22
		c0-9.93-8.079-18.009-18.01-18.009c-9.93,0-18.009,8.079-18.009,18.009c0,3.037-2.462,5.5-5.5,5.5c-3.037,0-5.5-2.463-5.5-5.5
		C201.438,113.65,214.452,100.636,230.447,100.636z"/>
</g>
<g>
</g>
<g>
</g>
<g>
</g>
<g>
</g>
<g>
</g>
<g>
</g>
<g>
</g>
<g>
</g>
<g>
</g>
<g>
</g>
<g>
</g>
<g>
</g>
<g>
</g>
<g>
</g>
<g>
</g>
</svg>
